<svg width="55" height="45" viewBox="0 0 55 45" fill="none" xmlns="http://www.w3.org/2000/svg">
<path d="M48.013 6.25549C46.8212 5.15823 45.4062 4.28781 43.8488 3.69395C42.2914 3.10009 40.6221 2.79443 38.9363 2.79443C37.2505 2.79443 35.5812 3.10009 34.0238 3.69395C32.4664 4.28781 31.0514 5.15823 29.8597 6.25549L27.3863 8.53161L24.913 6.25549C22.5057 4.04015 19.2408 2.79558 15.8363 2.79558C12.4319 2.79558 9.16696 4.04015 6.75968 6.25549C4.3524 8.47082 3 11.4755 3 14.6084C3 17.7414 4.3524 20.746 6.75968 22.9614L9.23301 25.2375L27.3863 41.9434L45.5397 25.2375L48.013 22.9614C49.2053 21.8646 50.1512 20.5625 50.7965 19.1292C51.4418 17.696 51.7739 16.1598 51.7739 14.6084C51.7739 13.057 51.4418 11.5209 50.7965 10.0876C50.1512 8.6544 49.2053 7.35222 48.013 6.25549V6.25549Z" stroke="white" stroke-width="5" stroke-linecap="round" stroke-linejoin="round"/>
</svg>
