<svg width="255" height="496" viewBox="0 0 255 496" fill="none" xmlns="http://www.w3.org/2000/svg">
<path d="M12.0781 482.75C7.78125 472.008 7.24414 460.729 10.4668 448.912C13.6895 437.096 18.8815 424.742 26.043 411.852C33.2044 398.603 41.6191 384.996 51.2871 371.031C60.9551 357.066 70.0859 342.743 78.6797 328.062C87.2734 313.023 94.4349 297.626 100.164 281.871C105.893 266.116 108.758 250.182 108.758 234.068C107.326 230.846 104.103 225.475 99.0898 217.955C94.0768 210.077 88.1686 201.126 81.3652 191.1C74.5618 180.715 67.2214 169.615 59.3438 157.799C51.4661 145.982 43.7676 134.524 36.248 123.424C29.0866 111.965 22.4622 101.223 16.375 91.1973C10.6458 80.8132 6.34896 72.2194 3.48438 65.416C0.619792 58.6126 -0.275391 53.9577 0.798828 51.4512C1.87305 48.5866 5.63281 48.7656 12.0781 51.9883C17.0911 56.6432 23.3574 64.1628 30.877 74.5469C38.3965 84.5729 46.0951 96.0312 53.9727 108.922C62.2083 121.454 70.444 134.524 78.6797 148.131C87.2734 161.38 95.151 173.375 102.312 184.117C109.474 194.501 115.74 202.916 121.111 209.361C126.482 215.449 130.421 217.597 132.928 215.807C136.508 208.645 141.701 197.366 148.504 181.969C155.665 166.214 163.364 149.205 171.6 130.943C179.835 112.324 188.25 93.8828 196.844 75.6211C205.796 57.0013 214.031 41.2461 221.551 28.3555C229.428 15.4648 236.232 6.87109 241.961 2.57422C248.048 -2.08073 252.166 0.246745 254.314 9.55664C255.747 14.9277 254.135 24.4167 249.48 38.0234C244.826 51.2721 238.201 67.3854 229.607 86.3633C221.014 104.983 210.809 125.93 198.992 149.205C187.534 172.122 175.359 195.934 162.469 220.641C149.936 245.348 137.225 270.234 124.334 295.299C111.801 320.006 99.985 343.818 88.8848 366.734C77.7845 389.293 68.1165 410.061 59.8809 429.039C51.6452 448.017 45.737 463.951 42.1562 476.842C41.082 480.423 39.2917 483.824 36.7852 487.047C34.6367 490.628 32.1302 493.134 29.2656 494.566C26.401 495.999 23.3574 495.82 20.1348 494.029C17.2702 492.597 14.5846 488.837 12.0781 482.75Z" fill="url(#paint0_linear)"/>
<defs>
<linearGradient id="paint0_linear" x1="181" y1="74" x2="-64" y2="426" gradientUnits="userSpaceOnUse">
<stop offset="0.121166" stop-color="#E2C4A2" stop-opacity="0.22"/>
<stop offset="0.210719" stop-color="#E2C4A2" stop-opacity="0.97349"/>
<stop offset="1" stop-color="#E2C4A2"/>
</linearGradient>
</defs>
</svg>
