<svg width="34" height="31" viewBox="0 0 34 31" fill="none" xmlns="http://www.w3.org/2000/svg">
<path d="M32.5833 3.87481C31.2267 4.7473 29.7246 5.41461 28.135 5.85106C27.2818 4.95659 26.1479 4.32262 24.8866 4.03488C23.6254 3.74714 22.2976 3.81952 21.0829 4.24222C19.8683 4.66493 18.8253 5.41757 18.095 6.39836C17.3648 7.37914 16.9826 8.54074 17 9.72605V11.0177C14.5104 11.0766 12.0435 10.5731 9.81892 9.55226C7.59438 8.53137 5.68127 7.02471 4.24999 5.16647C4.24999 5.16647 -1.41668 16.7915 11.3333 21.9581C8.41574 23.7638 4.94013 24.6693 1.41666 24.5415C14.1667 30.9998 29.75 24.5415 29.75 9.6873C29.7487 9.32752 29.7107 8.96861 29.6367 8.61522C31.0825 7.31515 32.1028 5.67373 32.5833 3.87481V3.87481Z" fill="#1A9988" stroke="#1A9988" stroke-width="2" stroke-linecap="round" stroke-linejoin="round"/>
</svg>
