<svg width="23" height="26" viewBox="0 0 23 26" fill="none" xmlns="http://www.w3.org/2000/svg">
<path d="M21 5.04163C20.0859 5.67308 19.0738 6.15604 18.0027 6.47191C17.4278 5.82455 16.6638 5.36572 15.814 5.15748C14.9642 4.94923 14.0695 5.00161 13.2511 5.30754C12.4326 5.61347 11.7299 6.15818 11.2378 6.86801C10.7458 7.57784 10.4883 8.41853 10.5 9.27638V10.2112C8.82251 10.2538 7.16031 9.88945 5.66142 9.1506C4.16253 8.41174 2.87348 7.32132 1.90909 5.97645C1.90909 5.97645 -1.90909 14.3899 6.68182 18.1292C4.71596 19.436 2.3741 20.0913 0 19.9988C8.59091 24.6729 19.0909 19.9988 19.0909 9.24834C19.09 8.98794 19.0645 8.7282 19.0145 8.47243C19.9888 7.53153 20.6762 6.34357 21 5.04163Z" fill="white"/>
</svg>
