<svg width="42" height="37" viewBox="0 0 42 37" fill="none" xmlns="http://www.w3.org/2000/svg">
<path d="M39.445 9.89734C39.2371 9.16568 38.8137 8.4953 38.2176 7.95392C37.6215 7.41254 36.8738 7.01933 36.05 6.814C33.04 6.1665 21 6.1665 21 6.1665C21 6.1665 8.95999 6.1665 5.94999 6.87567C5.12618 7.081 4.37845 7.47421 3.78235 8.01559C3.18625 8.55697 2.76287 9.22734 2.55499 9.959C2.00412 12.6501 1.73466 15.38 1.74999 18.1144C1.73036 20.8694 1.99984 23.6202 2.55499 26.3315C2.78417 27.0404 3.21703 27.6853 3.81174 28.2038C4.40646 28.7223 5.14293 29.097 5.94999 29.2915C8.95999 30.0007 21 30.0007 21 30.0007C21 30.0007 33.04 30.0007 36.05 29.2915C36.8738 29.0862 37.6215 28.693 38.2176 28.1516C38.8137 27.6102 39.2371 26.9398 39.445 26.2082C39.9916 23.5374 40.2611 20.8283 40.25 18.1144C40.2696 15.3594 40.0001 12.6087 39.445 9.89734V9.89734Z" fill="#1A9988" stroke="#1A9988" stroke-width="2" stroke-linecap="round" stroke-linejoin="round"/>
<path d="M17.0625 23.1557L27.125 18.1145L17.0625 13.0732V23.1557Z" fill="#DDDDDD" stroke="#DDDDDD" stroke-width="2" stroke-linecap="round" stroke-linejoin="round"/>
</svg>
